<?xml version="1.0" encoding="UTF-8" standalone="no"?>
<!DOCTYPE svg PUBLIC "-//W3C//DTD SVG 1.1//EN" "http://www.w3.org/Graphics/SVG/1.1/DTD/svg11.dtd">
<svg width="100%" height="100%" viewBox="0 0 2477 555" version="1.1" xmlns="http://www.w3.org/2000/svg" xmlns:xlink="http://www.w3.org/1999/xlink" xml:space="preserve" xmlns:serif="http://www.serif.com/" style="fill-rule:evenodd;clip-rule:evenodd;">
    <g transform="matrix(1,0,0,1,-4.94112,-5.87918)">
        <g id="pdf-logo-icon.svg" transform="matrix(0.693222,0,0,0.693222,282.23,283.168)">
            <g transform="matrix(1,0,0,1,-400,-400)">
                <clipPath id="_clip1">
                    <rect x="0" y="0" width="800" height="800"/>
                </clipPath>
                <g clip-path="url(#_clip1)">
                    <g id="SVGRepo_iconCarrier">
                        <path d="M133.333,346.667L133.333,320L106.667,320L106.667,346.667L133.333,346.667ZM346.667,346.667L346.667,320L320,320L320,346.667L346.667,346.667ZM346.667,560L320,560L320,586.667L346.667,586.667L346.667,560ZM720,186.667L746.667,186.667L746.667,175.621L738.859,167.811L720,186.667ZM560,26.667L578.859,7.811L571.045,0L560,0L560,26.667ZM133.333,373.333L186.667,373.333L186.667,320L133.333,320L133.333,373.333ZM160,586.667L160,453.333L106.667,453.333L106.667,586.667L160,586.667ZM160,453.333L160,346.667L106.667,346.667L106.667,453.333L160,453.333ZM186.667,426.667L133.333,426.667L133.333,480L186.667,480L186.667,426.667ZM213.333,400C213.333,414.727 201.394,426.667 186.667,426.667L186.667,480C230.85,480 266.667,444.183 266.667,400L213.333,400ZM186.667,373.333C201.394,373.333 213.333,385.273 213.333,400L266.667,400C266.667,355.817 230.85,320 186.667,320L186.667,373.333ZM320,346.667L320,560L373.333,560L373.333,346.667L320,346.667ZM346.667,586.667L400,586.667L400,533.333L346.667,533.333L346.667,586.667ZM480,506.667L480,400L426.667,400L426.667,506.667L480,506.667ZM400,320L346.667,320L346.667,373.333L400,373.333L400,320ZM480,400C480,355.817 444.183,320 400,320L400,373.333C414.727,373.333 426.667,385.273 426.667,400L480,400ZM400,586.667C444.183,586.667 480,550.848 480,506.667L426.667,506.667C426.667,521.394 414.727,533.333 400,533.333L400,586.667ZM533.333,320L533.333,586.667L586.667,586.667L586.667,320L533.333,320ZM560,373.333L693.333,373.333L693.333,320L560,320L560,373.333ZM560,480L640,480L640,426.667L560,426.667L560,480ZM106.667,266.667L106.667,80L53.333,80L53.333,266.667L106.667,266.667ZM693.333,186.667L693.333,266.667L746.667,266.667L746.667,186.667L693.333,186.667ZM133.333,53.333L560,53.333L560,0L133.333,0L133.333,53.333ZM541.141,45.523L701.141,205.523L738.859,167.811L578.859,7.811L541.141,45.523ZM106.667,80C106.667,65.273 118.606,53.333 133.333,53.333L133.333,0C89.15,0 53.333,35.817 53.333,80L106.667,80ZM53.333,640L53.333,720L106.667,720L106.667,640L53.333,640ZM133.333,800L666.667,800L666.667,746.667L133.333,746.667L133.333,800ZM746.667,720L746.667,640L693.333,640L693.333,720L746.667,720ZM666.667,800C710.848,800 746.667,764.181 746.667,720L693.333,720C693.333,734.725 681.392,746.667 666.667,746.667L666.667,800ZM53.333,720C53.333,764.181 89.15,800 133.333,800L133.333,746.667C118.606,746.667 106.667,734.725 106.667,720L53.333,720Z" style="fill:rgb(45,105,185);fill-rule:nonzero;stroke:rgb(45,105,185);stroke-width:15.2px;"/>
                    </g>
                </g>
            </g>
        </g>
        <g transform="matrix(0.758172,0,0,0.758172,151.358,58.1607)">
            <g transform="matrix(684.963,0,0,684.963,631.202,538.298)">
                <path d="M0.359,-0.016C0.343,-0.008 0.327,-0.001 0.311,0.003C0.294,0.007 0.277,0.009 0.259,0.009C0.186,0.009 0.131,-0.021 0.095,-0.081C0.059,-0.14 0.041,-0.23 0.041,-0.35C0.041,-0.472 0.06,-0.565 0.099,-0.628C0.137,-0.691 0.194,-0.722 0.27,-0.722C0.287,-0.722 0.302,-0.721 0.317,-0.717C0.332,-0.714 0.346,-0.709 0.359,-0.703L0.359,-0.612C0.345,-0.619 0.332,-0.624 0.32,-0.627C0.307,-0.63 0.295,-0.632 0.284,-0.632C0.233,-0.632 0.196,-0.609 0.172,-0.565C0.149,-0.52 0.137,-0.449 0.137,-0.351C0.137,-0.26 0.148,-0.192 0.171,-0.149C0.193,-0.105 0.227,-0.083 0.274,-0.083C0.287,-0.083 0.301,-0.085 0.314,-0.09C0.328,-0.094 0.343,-0.101 0.359,-0.11L0.359,-0.016Z" style="fill:rgb(77,77,77);fill-rule:nonzero;"/>
            </g>
            <g transform="matrix(684.963,0,0,684.963,892.076,538.298)">
                <path d="M0.119,-0.241C0.119,-0.183 0.125,-0.14 0.136,-0.113C0.148,-0.085 0.166,-0.072 0.191,-0.072C0.216,-0.072 0.234,-0.085 0.246,-0.113C0.258,-0.14 0.264,-0.183 0.264,-0.241C0.264,-0.299 0.258,-0.342 0.246,-0.369C0.234,-0.396 0.216,-0.41 0.191,-0.41C0.166,-0.41 0.148,-0.397 0.136,-0.369C0.125,-0.342 0.119,-0.299 0.119,-0.241ZM0.03,-0.24C0.03,-0.321 0.044,-0.382 0.071,-0.425C0.099,-0.467 0.139,-0.488 0.191,-0.488C0.243,-0.488 0.283,-0.467 0.311,-0.425C0.338,-0.382 0.352,-0.321 0.352,-0.24C0.352,-0.159 0.338,-0.097 0.311,-0.055C0.283,-0.012 0.243,0.009 0.191,0.009C0.139,0.009 0.099,-0.012 0.071,-0.055C0.044,-0.097 0.03,-0.159 0.03,-0.24Z" style="fill:rgb(77,77,77);fill-rule:nonzero;"/>
            </g>
            <g transform="matrix(684.963,0,0,684.963,1154.29,538.298)">
                <path d="M0.055,-0L0.055,-0.479L0.142,-0.479L0.142,-0.431C0.154,-0.449 0.168,-0.462 0.185,-0.471C0.202,-0.479 0.221,-0.484 0.243,-0.484C0.278,-0.484 0.304,-0.474 0.322,-0.455C0.339,-0.435 0.347,-0.405 0.347,-0.365L0.347,-0L0.259,-0L0.259,-0.322C0.259,-0.354 0.255,-0.376 0.246,-0.388C0.238,-0.4 0.223,-0.406 0.202,-0.406C0.183,-0.406 0.168,-0.4 0.158,-0.387C0.148,-0.375 0.143,-0.357 0.143,-0.333L0.143,-0L0.055,-0Z" style="fill:rgb(77,77,77);fill-rule:nonzero;"/>
            </g>
            <g transform="matrix(684.963,0,0,684.963,1427.54,538.298)">
                <path d="M0.009,-0.479L0.1,-0.479L0.15,-0.229C0.153,-0.214 0.155,-0.198 0.158,-0.179C0.16,-0.161 0.162,-0.141 0.164,-0.119C0.167,-0.146 0.17,-0.168 0.172,-0.186C0.175,-0.204 0.177,-0.218 0.179,-0.228L0.228,-0.479L0.319,-0.479L0.199,-0L0.129,-0L0.009,-0.479Z" style="fill:rgb(77,77,77);fill-rule:nonzero;"/>
            </g>
            <g transform="matrix(684.963,0,0,684.963,1652.29,538.298)">
                <path d="M0.113,-0.292L0.247,-0.292L0.247,-0.304C0.247,-0.344 0.242,-0.372 0.231,-0.39C0.221,-0.407 0.204,-0.416 0.181,-0.416C0.159,-0.416 0.142,-0.406 0.13,-0.385C0.119,-0.364 0.113,-0.333 0.113,-0.292ZM0.327,-0.16L0.327,-0.154C0.327,-0.103 0.314,-0.064 0.289,-0.035C0.264,-0.006 0.229,0.009 0.185,0.009C0.131,0.009 0.092,-0.011 0.067,-0.051C0.042,-0.091 0.03,-0.155 0.03,-0.242C0.03,-0.325 0.042,-0.386 0.067,-0.427C0.092,-0.467 0.13,-0.488 0.18,-0.488C0.234,-0.488 0.273,-0.469 0.296,-0.432C0.32,-0.395 0.332,-0.335 0.332,-0.251L0.332,-0.223L0.113,-0.223L0.113,-0.209C0.113,-0.159 0.118,-0.122 0.13,-0.1C0.141,-0.077 0.159,-0.066 0.184,-0.066C0.204,-0.066 0.219,-0.074 0.229,-0.089C0.24,-0.105 0.245,-0.128 0.246,-0.16L0.327,-0.16Z" style="fill:rgb(77,77,77);fill-rule:nonzero;"/>
            </g>
            <g transform="matrix(684.963,0,0,684.963,1900.12,538.298)">
                <path d="M0.056,-0L0.056,-0.479L0.141,-0.479L0.141,-0.409C0.153,-0.435 0.169,-0.454 0.188,-0.467C0.206,-0.479 0.229,-0.486 0.257,-0.488L0.257,-0.395L0.242,-0.395C0.208,-0.395 0.183,-0.386 0.167,-0.369C0.151,-0.352 0.143,-0.326 0.143,-0.289L0.143,-0L0.056,-0Z" style="fill:rgb(77,77,77);fill-rule:nonzero;"/>
            </g>
            <g transform="matrix(684.963,0,0,684.963,2085.74,538.298)">
                <path d="M0.06,-0L0.06,-0.414L0.012,-0.414L0.012,-0.479L0.06,-0.479L0.06,-0.609L0.148,-0.609L0.148,-0.479L0.214,-0.479L0.214,-0.414L0.148,-0.414L0.148,-0L0.06,-0Z" style="fill:rgb(77,77,77);fill-rule:nonzero;"/>
            </g>
            <g transform="matrix(684.963,0,0,684.963,2235.91,538.298)">
                <path d="M0.14,-0.358C0.14,-0.257 0.148,-0.186 0.165,-0.144C0.181,-0.103 0.209,-0.082 0.247,-0.082C0.285,-0.082 0.312,-0.102 0.328,-0.141C0.343,-0.181 0.351,-0.253 0.351,-0.358C0.351,-0.46 0.343,-0.532 0.327,-0.572C0.311,-0.613 0.284,-0.633 0.246,-0.633C0.208,-0.633 0.18,-0.612 0.164,-0.572C0.148,-0.531 0.14,-0.46 0.14,-0.358ZM0.043,-0.356C0.043,-0.486 0.059,-0.58 0.091,-0.637C0.122,-0.694 0.174,-0.722 0.246,-0.722C0.318,-0.722 0.369,-0.694 0.401,-0.637C0.432,-0.581 0.448,-0.487 0.448,-0.356C0.448,-0.225 0.432,-0.132 0.401,-0.076C0.369,-0.019 0.318,0.009 0.246,0.009C0.174,0.009 0.122,-0.019 0.091,-0.076C0.059,-0.132 0.043,-0.225 0.043,-0.356Z" style="fill:rgb(77,77,77);fill-rule:nonzero;"/>
            </g>
            <g transform="matrix(684.963,0,0,684.963,2572.38,538.298)">
                <path d="M0.055,-0L0.055,-0.479L0.142,-0.479L0.142,-0.431C0.154,-0.449 0.168,-0.462 0.185,-0.471C0.202,-0.479 0.221,-0.484 0.243,-0.484C0.278,-0.484 0.304,-0.474 0.322,-0.455C0.339,-0.435 0.347,-0.405 0.347,-0.365L0.347,-0L0.259,-0L0.259,-0.322C0.259,-0.354 0.255,-0.376 0.246,-0.388C0.238,-0.4 0.223,-0.406 0.202,-0.406C0.183,-0.406 0.168,-0.4 0.158,-0.387C0.148,-0.375 0.143,-0.357 0.143,-0.333L0.143,-0L0.055,-0Z" style="fill:rgb(77,77,77);fill-rule:nonzero;"/>
            </g>
            <g transform="matrix(684.963,0,0,684.963,2845.63,538.298)">
                <path d="M0.113,-0.292L0.247,-0.292L0.247,-0.304C0.247,-0.344 0.242,-0.372 0.231,-0.39C0.221,-0.407 0.204,-0.416 0.181,-0.416C0.159,-0.416 0.142,-0.406 0.13,-0.385C0.119,-0.364 0.113,-0.333 0.113,-0.292ZM0.327,-0.16L0.327,-0.154C0.327,-0.103 0.314,-0.064 0.289,-0.035C0.264,-0.006 0.229,0.009 0.185,0.009C0.131,0.009 0.092,-0.011 0.067,-0.051C0.042,-0.091 0.03,-0.155 0.03,-0.242C0.03,-0.325 0.042,-0.386 0.067,-0.427C0.092,-0.467 0.13,-0.488 0.18,-0.488C0.234,-0.488 0.273,-0.469 0.296,-0.432C0.32,-0.395 0.332,-0.335 0.332,-0.251L0.332,-0.223L0.113,-0.223L0.113,-0.209C0.113,-0.159 0.118,-0.122 0.13,-0.1C0.141,-0.077 0.159,-0.066 0.184,-0.066C0.204,-0.066 0.219,-0.074 0.229,-0.089C0.24,-0.105 0.245,-0.128 0.246,-0.16L0.327,-0.16Z" style="fill:rgb(77,77,77);fill-rule:nonzero;"/>
            </g>
        </g>
    </g>
</svg>
